#!OML:ASF E:\Steps\Project 1\Capture day 1\Session 2\Subject.ASF
:FULLY-SPECIFIED
:DEGREES
394
root 9.13136 16.4069 12.7303 -152.944 2.98064 178.972
lowerback -26.691 -2.34685 -5.36752
upperback -3.02729 -0.653768 -0.343955
thorax 11.558 -0.204724 2.53806
lowerneck 4.41418 -0.341226 -2.28156
upperneck 1.3999 -0.447846 4.72184
head -0.295351 -0.219747 1.86552
rclavicle -7.00716e-015 1.03368e-014
rhumerus -38.7145 -17.4873 -79.3028
rradius 29.9947
rwrist 1.35796
rhand -8.20096 -51.4879
rfingers 7.12502
rthumb 17.7155 -80.7009
lclavicle -7.00716e-015 1.03368e-014
lhumerus -29.8081 0.577821 82.8627
lradius 23.1382
lwrist -3.7202
lhand -23.0505 -12.9895
lfingers 7.12502
lthumb 3.3943 16.9632
rfemur -26.1746 8.2102 16.4996
rtibia 6.3433
rfoot -17.2272 -6.26339
rtoes -18.5048
lfemur -25.274 -6.46569 -19.9055
ltibia 5.93295
lfoot -6.80704 7.53909
ltoes -34.8418
395
root 9.13241 16.4106 12.7173 -152.963 2.90601 178.969
lowerback -26.6772 -2.3462 -5.34026
upperback -3.00841 -0.661373 -0.364773
thorax 11.5725 -0.208259 2.49573
lowerneck 3.80952 -0.442239 -2.14769
upperneck 1.9113 -0.576428 4.96523
head -0.0291054 -0.267059 1.91766
rclavicle -8.94531e-015 -1.98785e-015
rhumerus -38.6893 -17.751 -79.2175
rradius 29.9978
rwrist 1.51474
rhand -8.1966 -51.5807
rfingers 7.12502
rthumb 17.7197 -80.7933
lclavicle -8.94531e-015 -1.98785e-015
lhumerus -29.6259 0.800216 82.7889
lradius 22.7502
lwrist -3.7556
lhand -23.1669 -13.1395
lfingers 7.12502
lthumb 3.28197 16.815
rfemur -26.0803 8.19485 16.5184
rtibia 6.30397
rfoot -17.281 -6.29226
rtoes -18.0882
lfemur -25.1228 -6.60631 -19.847
ltibia 5.75326
lfoot -6.85534 7.57343
ltoes -33.6415
396
root 9.13143 16.4162 12.7053 -153.001 2.7709 178.909
lowerback -26.6235 -2.34684 -5.32391
upperback -2.96734 -0.672147 -0.398813
thorax 11.5916 -0.215782 2.44323
lowerneck 3.66493 -0.471621 -2.16539
upperneck 2.0229 -0.616695 5.05622
head 0.031749 -0.283363 1.94998
rclavicle 1.98785e-016 -1.51076e-014
rhumerus -38.5491 -18.1402 -79.0737
rradius 29.8577
rwrist 1.6856
rhand -8.11702 -51.4632
rfingers 7.12502
rthumb 17.7962 -80.6689
lclavicle 1.98785e-016 -1.51076e-014
lhumerus -29.3856 1.22199 82.7064
lradius 22.3632
lwrist -4.00861
lhand -23.1419 -13.2664
lfingers 7.12502
lthumb 3.30609 16.6877
rfemur -25.9685 7.99471 16.5117
rtibia 6.29885
rfoot -17.299 -6.21835
rtoes -17.8741
lfemur -25.0131 -6.90137 -19.8096
ltibia 5.65969
lfoot -6.98132 7.62991
ltoes -32.1346
397
root 9.13587 16.4159 12.6949 -152.954 2.82984 178.858
lowerback -27.0447 -2.31305 -5.384
upperback -2.73956 -0.591581 -0.43594
thorax 12.0717 -0.205996 2.46082
lowerneck 3.78826 -0.488415 -2.19483
upperneck 1.68267 -0.63889 5.01533
head -0.0941086 -0.303836 1.94366
rclavicle -9.39258e-015 2.34566e-014
rhumerus -38.1066 -18.3536 -79.1507
rradius 29.8732
rwrist 1.61178
rhand -7.94432 -51.4073
rfingers 7.12502
rthumb 17.9624 -80.5978
lclavicle -9.39258e-015 2.34566e-014
lhumerus -28.9141 1.34658 82.7463
lradius 22.0707
lwrist -3.97332
lhand -22.7296 -13.0352
lfingers 7.12502
lthumb 3.70422 16.9123
rfemur -26.0128 7.93599 16.4684
rtibia 6.33531
rfoot -17.3474 -6.13575
rtoes -18.1102
lfemur -25.0031 -7.08829 -19.791
ltibia 5.60253
lfoot -7.05271 7.79824
ltoes -31.5687
398
root 9.14425 16.4122 12.6876 -152.835 2.97767 178.79
lowerback -26.8609 -2.34185 -5.56271
upperback -2.98946 -0.562032 -0.421809
thorax 11.6859 -0.171359 2.59484
lowerneck 4.06878 -0.471014 -2.22277
upperneck 1.83748 -0.613697 5.05763
head -0.0942235 -0.288743 1.96303
rclavicle -2.68359e-015 -3.10104e-014
rhumerus -38.4552 -18.0303 -79.1587
rradius 30.2075
rwrist 1.16915
rhand -7.78002 -51.7199
rfingers 7.12502
rthumb 18.1205 -80.8958
lclavicle -2.68359e-015 -3.10104e-014
lhumerus -29.2869 1.02548 82.9317
lradius 21.9546
lwrist -3.57259
lhand -22.3273 -12.8188
lfingers 7.12502
lthumb 4.09276 17.1217
rfemur -26.1526 8.06539 16.3514
rtibia 6.35726
rfoot -17.389 -6.17033
rtoes -18.284
lfemur -25.1002 -7.09922 -19.8553
ltibia 5.61892
lfoot -7.01609 7.90246
ltoes -32.1041
399
root 9.14942 16.4122 12.6832 -152.784 2.97063 178.708
lowerback -26.7574 -2.42592 -5.65288
upperback -3.06529 -0.648193 -0.398562
thorax 11.5529 -0.206641 2.64317
lowerneck 3.71974 -0.460109 -2.26281
upperneck 2.20684 -0.604241 5.16412
head 0.0796893 -0.273201 2.00237
rclavicle 6.90777e-015 -2.78299e-014
rhumerus -38.4382 -17.7509 -79.3064
rradius 30.4442
rwrist 0.800201
rhand -7.89567 -51.8757
rfingers 7.12502
rthumb 18.0092 -81.0619
lclavicle 6.90777e-015 -2.78299e-014
lhumerus -29.3121 1.02195 83.0516
lradius 21.6754
lwrist -3.46631
lhand -22.2895 -12.9894
lfingers 7.12502
lthumb 4.1292 16.9503
rfemur -26.2197 8.1413 16.2434
rtibia 6.45488
rfoot -17.439 -6.27887
rtoes -18.1079
lfemur -25.1795 -7.06081 -19.9642
ltibia 5.73357
lfoot -6.96019 7.83974
ltoes -33.046
400
root 9.1511 16.4144 12.6776 -152.863 2.795 178.616
lowerback -26.5404 -2.52513 -5.69234
upperback -3.05787 -0.797355 -0.349435
thorax 11.461 -0.280362 2.66797
lowerneck 3.28003 -0.440442 -2.33785
upperneck 2.57097 -0.586376 5.25376
head 0.267178 -0.25353 2.04323
rclavicle -6.70898e-015 1.19271e-015
rhumerus -38.364 -17.4866 -79.4078
rradius 30.6268
rwrist 0.570819
rhand -8.09325 -51.7485
rfingers 7.12502
rthumb 17.8191 -80.9521
lclavicle -6.70898e-015 1.19271e-015
lhumerus -29.238 1.34887 83.124
lradius 21.4137
lwrist -3.80252
lhand -22.3917 -13.1465
lfingers 7.12502
lthumb 4.03057 16.7951
rfemur -26.1463 8.20764 16.1494
rtibia 6.60599
rfoot -17.595 -6.53076
rtoes -17.6766
lfemur -25.1465 -7.07978 -20.0734
ltibia 5.83297
lfoot -6.91507 7.70359
ltoes -33.8063
401
root 9.14932 16.417 12.6697 -153.048 2.46857 178.524
lowerback -26.3016 -2.6141 -5.71262
upperback -2.96786 -0.951782 -0.302891
thorax 11.4527 -0.365646 2.67617
lowerneck 3.59817 -0.392573 -2.51173
upperneck 2.20995 -0.530888 5.03767
head 0.0985707 -0.240809 2.00463
rclavicle -7.35503e-015 -9.93923e-015
rhumerus -38.2235 -17.3472 -79.4777
rradius 30.7607
rwrist 0.367281
rhand -8.19988 -51.6131
rfingers 7.12502
rthumb 17.7165 -80.826
lclavicle -7.35503e-015 -9.93923e-015
lhumerus -29.051 1.59075 83.2357
lradius 21.2082
lwrist -4.26741
lhand -22.6799 -13.2468
lfingers 7.12502
lthumb 3.75218 16.6999
rfemur -25.8851 8.20424 16.0968
rtibia 6.65237
rfoot -17.8487 -6.85393
rtoes -17.1699
lfemur -25.043 -7.18781 -20.1611
ltibia 5.95
lfoot -6.88867 7.48117
ltoes -34.2299
402
root 9.14757 16.4199 12.6623 -153.245 2.16089 178.429
lowerback -26.0269 -2.69272 -5.72245
upperback -2.88237 -1.09299 -0.294358
thorax 11.4179 -0.442312 2.6409
lowerneck 4.0843 -0.332905 -2.60177
upperneck 1.78802 -0.455309 4.87359
head -0.118186 -0.216734 1.96924
rclavicle -2.03754e-015 3.97569e-015
rhumerus -38.0347 -17.1818 -79.6733
rradius 30.927
rwrist 0.0243735
rhand -8.32336 -51.7071
rfingers 7.12502
rthumb 17.5977 -80.9307
lclavicle -2.03754e-015 3.97569e-015
lhumerus -28.8018 1.71215 83.3104
lradius 20.9499
lwrist -4.55994
lhand -22.9638 -13.443
lfingers 7.12502
lthumb 3.47802 16.5084
rfemur -25.5397 8.16818 16.043
rtibia 6.55157
rfoot -18.0159 -7.08298
rtoes -16.6671
lfemur -24.9433 -7.33415 -20.238
ltibia 6.15202
lfoot -6.94259 7.2755
ltoes -34.1434
403
root 9.14912 16.4216 12.6544 -153.378 2.01166 178.317
lowerback -25.7571 -2.75633 -5.77453
upperback -2.8759 -1.18731 -0.313105
thorax 11.2912 -0.488675 2.61795
lowerneck 4.07242 -0.336448 -2.5524
upperneck 1.88306 -0.455727 4.95084
head -0.0865589 -0.213703 1.98525
rclavicle 1.27719e-014 -1.15295e-014
rhumerus -38.0748 -16.5878 -80.0529
rradius 31.4051
rwrist -0.708693
rhand -8.64713 -52.5406
rfingers 7.12502
rthumb 17.2861 -81.7918
lclavicle 1.27719e-014 -1.15295e-014
lhumerus -28.7926 1.67342 83.3886
lradius 20.8775
lwrist -4.63561
lhand -22.8106 -13.4184
lfingers 7.12502
lthumb 3.62604 16.5305
rfemur -25.3236 8.15102 15.9547
rtibia 6.53536
rfoot -18.039 -7.20547
rtoes -16.9693
lfemur -24.8697 -7.4958 -20.3281
ltibia 6.35745
lfoot -7.03328 7.22237
ltoes -33.6496
404
root 9.15188 16.4202 12.6431 -153.411 1.91493 178.323
lowerback -25.6886 -2.78133 -5.74171
upperback -2.88115 -1.23735 -0.302382
thorax 11.2526 -0.510258 2.59428
lowerneck 4.14469 -0.322646 -2.59082
upperneck 1.89017 -0.438834 4.95748
head -0.0972242 -0.20578 1.99439
rclavicle -1.80397e-014 4.37326e-015
rhumerus -38.315 -16.0702 -80.2818
rradius 31.9157
rwrist -1.18292
rhand -8.64589 -51.7962
rfingers 7.12502
rthumb 17.2873 -81.0474
lclavicle -1.80397e-014 4.37326e-015
lhumerus -28.8591 1.51537 83.5232
lradius 20.8809
lwrist -4.69278
lhand -22.3724 -13.1819
lfingers 7.12502
lthumb 4.04914 16.7593
rfemur -25.2784 8.09715 16.0278
rtibia 6.66768
rfoot -18.0876 -7.27596
rtoes -17.7859
lfemur -24.8415 -7.57701 -20.2864
ltibia 6.44993
lfoot -7.08669 7.20348
ltoes -33.6334
405
root 9.15753 16.4146 12.6289 -153.289 1.89974 178.552
lowerback -25.8537 -2.73376 -5.54793
upperback -2.90353 -1.22271 -0.22718
thorax 11.3102 -0.495182 2.57224
lowerneck 3.92139 -0.348697 -2.50016
upperneck 2.09556 -0.470836 4.93112
head 0.00573966 -0.215315 1.96851
rclavicle 8.19987e-015 -2.5842e-014
rhumerus -38.4826 -15.7778 -80.4443
rradius 32.4114
rwrist -1.55179
rhand -8.40812 -51.4693
rfingers 7.12502
rthumb 17.5161 -80.7002
lclavicle 8.19987e-015 -2.5842e-014
lhumerus -28.8503 1.32305 83.6812
lradius 20.7735
lwrist -4.78524
lhand -22.0138 -13.095
lfingers 7.12502
lthumb 4.39541 16.8394
rfemur -25.391 8.13534 16.341
rtibia 6.74257
rfoot -18.0888 -7.25756
rtoes -18.2881
lfemur -24.9323 -7.54108 -19.9869
ltibia 6.48919
lfoot -7.11219 7.27708
ltoes -34.4537
406
root 9.16561 16.408 12.6178 -153.119 2.00607 178.764
lowerback -25.9999 -2.64259 -5.39411
upperback -2.95073 -1.1356 -0.175316
thorax 11.3236 -0.444632 2.57316
lowerneck 3.74406 -0.386891 -2.43387
upperneck 2.2588 -0.520099 4.91742
head 0.0883419 -0.234753 1.95177
rclavicle -3.77691e-015 -1.03368e-014
rhumerus -38.5328 -15.6149 -80.5932
rradius 32.7698
rwrist -1.81761
rhand -7.80513 -51.0848
rfingers 7.12502
rthumb 18.0963 -80.263
lclavicle -3.77691e-015 -1.03368e-014
lhumerus -28.9033 0.861848 83.9089
lradius 20.7764
lwrist -4.65215
lhand -21.7978 -13.1004
lfingers 7.12502
lthumb 4.60397 16.8296
rfemur -25.6168 8.20878 16.5921
rtibia 6.85137
rfoot -18.1299 -7.10852
rtoes -18.0219
lfemur -25.0707 -7.49025 -19.7083
ltibia 6.54593
lfoot -7.1403 7.40836
ltoes -34.7446
407
root 9.17218 16.4056 12.6105 -153.096 2.05482 178.761
lowerback -25.8601 -2.60679 -5.43721
upperback -3.03384 -1.07743 -0.189397
thorax 11.1501 -0.409694 2.60486
lowerneck 3.62872 -0.417794 -2.45235
upperneck 2.44913 -0.562624 4.95522
head 0.168857 -0.251003 1.96721
rclavicle 1.03368e-014 -2.38542e-015
rhumerus -38.7382 -15.3592 -80.7613
rradius 33.1858
rwrist -2.11093
rhand -7.40218 -50.7897
rfingers 7.12502
rthumb 18.484 -79.9315
lclavicle 1.03368e-014 -2.38542e-015
lhumerus -29.0975 0.28612 84.1525
lradius 20.8886
lwrist -4.4217
lhand -21.5524 -13.1365
lfingers 7.12502
lthumb 4.84101 16.7882
rfemur -25.6674 8.28855 16.5839
rtibia 6.96235
rfoot -18.3445 -7.07796
rtoes -16.9907
lfemur -25.0922 -7.34153 -19.7356
ltibia 6.60211
lfoot -7.15709 7.28139
ltoes -34.6678
408
root 9.17375 16.4068 12.5972 -153.21 1.99955 178.64
lowerback -25.6783 -2.6215 -5.5097
upperback -3.09954 -1.07602 -0.24754
thorax 10.9792 -0.402175 2.58365
lowerneck 3.64691 -0.432058 -2.54976
upperneck 2.6079 -0.584912 5.03406
head 0.2166 -0.258979 2.01058
rclavicle -8.05078e-015 -1.07344e-014
rhumerus -39.0583 -14.9799 -80.9475
rradius 33.6037
rwrist -2.46173
rhand -7.73651 -51.1333
rfingers 7.12502
rthumb 18.1624 -80.3054
lclavicle -8.05078e-015 -1.07344e-014
lhumerus -29.3107 -0.0790012 84.3077
lradius 20.9237
lwrist -4.4945
lhand -21.4934 -13.3289
lfingers 7.12502
lthumb 4.89793 16.5945
rfemur -25.4169 8.23322 16.4727
rtibia 6.86372
rfoot -18.3718 -7.08628
rtoes -16.6636
lfemur -24.9645 -7.41663 -19.8804
ltibia 6.66563
lfoot -7.19103 7.27848
ltoes -34.9912
